<svg width="28" height="21" viewBox="0 0 28 21" fill="none" xmlns="http://www.w3.org/2000/svg">
<path d="M24.0792 3.1824C20.6861 0.800049 17.5818 0.800049 17.5818 0.800049L17.2209 1.08882C21.0471 2.09951 23.5016 4.04871 23.4294 4.1209C19.4596 1.08882 9.35406 0.800049 4.44425 4.11946C4.49984 4.06243 6.31331 2.22585 10.4348 1.08882L10.2182 0.800049C10.2182 0.800049 7.11393 0.800049 3.72088 3.1824C3.72088 3.1824 0.400024 9.17438 0.400024 16.6824C0.400024 16.6824 2.34922 20.0754 7.4027 20.1476L9.06313 18.3428C6.03104 17.4043 5.02035 15.5273 5.02035 15.5273C8.99093 19.2091 19.2423 19.0648 22.9963 15.5273C22.9963 15.5273 21.8412 17.5487 18.8813 18.3428L20.3974 20.1476C25.4508 20.0754 27.4 16.6824 27.4 16.6824C27.4 9.17438 24.0792 3.1824 24.0792 3.1824ZM9.56847 14.5166C8.25313 14.5166 7.18612 13.3854 7.18612 11.9899C7.18612 10.5944 8.25313 9.46315 9.56847 9.46315C10.8838 9.46315 11.9508 10.5944 11.9508 11.9899C11.9508 13.3854 10.8845 14.5166 9.56847 14.5166ZM17.9428 14.5166C16.6267 14.5166 15.5605 13.3854 15.5605 11.9899C15.5605 10.5944 16.6267 9.46315 17.9428 9.46315C19.2589 9.46315 20.3252 10.5944 20.3252 11.9899C20.3252 13.3854 19.2589 14.5166 17.9428 14.5166Z" fill="white"/>
</svg>
