<svg width="28" height="31" viewBox="0 0 28 31" fill="none" xmlns="http://www.w3.org/2000/svg">
<path d="M25.6363 9.9871C24.2581 7.86097 22.3201 6.16759 20.0293 5.09511C19.5119 4.85051 18.8957 5.0763 18.6511 5.59372C18.4065 6.11114 18.6323 6.72734 19.1497 6.97194C23.148 8.84407 25.7304 12.9082 25.7304 17.3204C25.7304 23.6235 20.6032 28.7507 14.3 28.7507C7.99691 28.7507 2.86974 23.6235 2.86974 17.3204C2.86974 12.9082 5.45214 8.84407 9.44569 6.96724C9.96311 6.72264 10.1842 6.10644 9.9443 5.58902C9.6997 5.07159 9.0835 4.85051 8.56608 5.09041C6.27531 6.16288 4.33733 7.85626 2.96381 9.98239C1.54796 12.165 0.800049 14.7003 0.800049 17.3157C0.800049 20.9235 2.20649 24.3103 4.75597 26.8597C7.30545 29.4139 10.6922 30.8204 14.3 30.8204C17.9079 30.8204 21.2946 29.4139 23.8441 26.8645C26.3936 24.315 27.8 20.9282 27.8 17.3204C27.8 14.705 27.0521 12.1697 25.6363 9.9871Z" fill="white"/>
<path d="M14.4349 18.6509C15.0087 18.6509 15.4697 18.1899 15.4697 17.6161V1.4349C15.4697 0.861031 15.0087 0.400055 14.4349 0.400055C13.861 0.400055 13.4 0.861031 13.4 1.4349V17.6161C13.4 18.1899 13.861 18.6509 14.4349 18.6509Z" fill="white"/>
</svg>
