<svg width="200" height="200" viewBox="0 0 200 200" fill="none" xmlns="http://www.w3.org/2000/svg">
<path d="M38.6008 6.51634C38.1998 5.51911 39.3304 4.5994 40.2339 5.18118C49.4045 11.0855 72.2395 29.6205 74.6361 68.9241C77.6429 118.237 90.9252 133.984 105.401 142.416C105.401 142.416 87.3062 140.531 73.2182 124.664C38.6286 85.7062 45.7245 24.2414 38.6008 6.51634Z" fill="#3A5448"/>
<g style="mix-blend-mode:soft-light">
<path d="M47.3241 20.4836C49.2904 25.6722 51.1545 30.8977 52.8237 36.1834C54.5208 41.4593 56.0576 46.7841 57.4259 52.1496C58.7739 57.5196 60.0204 62.9144 61.0367 68.3536C62.077 73.7884 62.8827 79.2614 63.6733 84.7594C64.4932 90.2498 65.2883 95.7861 66.6522 101.257C68.0084 106.718 70.0372 112.105 72.9905 116.961C73.7277 118.171 74.4905 119.373 75.3157 120.517C76.1206 121.676 76.9767 122.802 77.8523 123.91C79.6155 126.12 81.5285 128.217 83.5889 130.162C87.7187 134.041 92.4367 137.289 97.4459 139.85C97.9732 140.12 98.6187 139.91 98.8887 139.383C99.1535 138.865 98.9564 138.232 98.4502 137.954L98.4464 137.952C97.2458 137.295 96.0535 136.624 94.8958 135.903C94.3113 135.552 93.7426 135.176 93.1679 134.81C92.6075 134.423 92.032 134.057 91.4844 133.653C89.2668 132.075 87.1628 130.342 85.1964 128.462C81.2509 124.726 77.8425 120.381 75.0133 115.747C73.6247 113.413 72.4098 110.982 71.3868 108.464C70.3652 105.946 69.5355 103.345 68.854 100.695C67.4886 95.3925 66.6567 89.9201 65.7969 84.4358C64.9303 78.9514 64.0216 73.4459 62.8872 67.9864C62.3275 65.2558 61.719 62.5351 61.0622 59.8271C60.7418 58.4709 60.395 57.1214 60.0505 55.772C59.6932 54.4255 59.3283 53.0806 58.953 51.7402C57.441 46.3777 55.7657 41.0649 53.9257 35.8116C52.0602 30.5673 50.0562 25.3742 47.8559 20.2676C47.7927 20.1216 47.6235 20.0546 47.4783 20.1171C47.3368 20.178 47.2691 20.3406 47.3233 20.4836H47.3241Z" fill="white" fill-opacity="0.6"/>
</g>
<g filter="url(#filter0_d_44_816)">
<path d="M66.6589 155.06C66.1278 156.967 63.8229 157.712 62.2613 156.496C53.6451 149.787 30.9974 128.613 30.203 90.9099C29.5313 59.0708 26.1439 41.871 24.0647 34.1694C23.6254 32.5407 25.5188 31.2973 26.8397 32.3465C41.4069 43.9211 85.8997 85.9516 66.6589 155.06Z" fill="#3A5448"/>
<g style="mix-blend-mode:soft-light">
<path d="M63.9885 155.278C63.9501 155.308 63.908 155.335 63.8621 155.358C63.4815 155.551 63.0166 155.399 62.824 155.018C62.6059 154.586 40.9376 111.339 38.0061 67.1118C37.9782 66.6866 38.3002 66.3178 38.726 66.2892C39.1517 66.2614 39.5196 66.5835 39.5482 67.0095C42.4586 110.915 63.9855 153.89 64.2029 154.319C64.3729 154.655 64.2751 155.055 63.9892 155.278H63.9885Z" fill="white" fill-opacity="0.6"/>
</g>
</g>
<path d="M51.0581 47.6948C51.0581 41.4487 56.1184 36.3858 62.3613 36.3858H158.486C163.789 36.3858 168.162 40.5441 168.431 45.8426L175.526 185.276C175.738 189.423 172.474 192.92 168.326 192.995L58.1555 194.999C54.2566 195.07 51.0581 191.927 51.0581 188.026V47.6948Z" fill="url(#paint0_linear_44_816)"/>
<path d="M58.9334 38.5316C58.9214 36.5333 60.6779 34.9867 62.657 35.2554C75.7836 37.0361 120.923 42.5446 158.243 39.6786C159.945 39.5476 161.422 40.8384 161.512 42.5438L168.952 182.599C169.054 184.519 167.588 186.161 165.669 186.274C149.973 187.204 85.3303 190.796 62.2734 188.38C60.8697 188.233 59.8045 187.051 59.7962 185.639L58.9312 38.5316H58.9334Z" fill="#1B1C1E" fill-opacity="0.8"/>
<path opacity="0.6" d="M60.4795 42.041C60.4683 40.1181 62.1586 38.6294 64.0632 38.8883C76.6956 40.602 120.135 45.9028 156.05 43.1444C157.688 43.0187 159.11 44.2605 159.197 45.9012L166.357 180.682C166.455 182.53 165.044 184.111 163.198 184.22C148.093 185.115 85.885 188.572 63.6961 186.247C62.3459 186.106 61.3206 184.969 61.3123 183.609L60.4795 42.041Z" fill="white" fill-opacity="0.6"/>
<path opacity="0.49" d="M109.351 68.091L111.029 89.0561C111.084 89.7531 112.055 90.3077 113.257 90.3273C119.945 90.4372 140.787 90.7322 152.554 90.3755C153.885 90.3348 154.938 89.7102 154.982 88.9365C155.206 85.0047 155.697 73.5611 154.154 68.7774C153.905 68.0044 152.761 67.4384 151.407 67.4106L111.874 66.6083C110.449 66.5797 109.284 67.2631 109.35 68.0902L109.351 68.091Z" fill="white" fill-opacity="0.6"/>
<g opacity="0.6">
<path d="M70.024 65.4455C69.4726 65.4266 69.1348 65.8481 69.2732 66.3825L69.6471 67.8245C69.7855 68.3589 70.3497 68.8007 70.9011 68.8067L104.957 69.186C105.508 69.192 105.954 68.7457 105.948 68.194L105.942 67.6808C105.936 67.1291 105.479 66.6617 104.929 66.6429L70.0247 65.4447L70.024 65.4455Z" fill="white" fill-opacity="0.6"/>
</g>
<g opacity="0.6">
<path d="M69.6944 72.8107C69.143 72.7919 68.8052 73.2133 68.9436 73.7477L69.3175 75.1897C69.4559 75.7241 70.0201 76.1659 70.5715 76.1719L104.627 76.5512C105.178 76.5573 105.624 76.111 105.618 75.5593L105.612 75.046C105.606 74.4943 105.15 74.0269 104.599 74.0081L69.6951 72.8099L69.6944 72.8107Z" fill="white" fill-opacity="0.6"/>
</g>
<g opacity="0.6">
<path d="M70.0102 111.997C69.4588 111.987 69.1534 112.406 69.3316 112.928L69.7228 114.076C69.9011 114.598 70.4984 115.026 71.0498 115.026H110.042C110.594 115.026 111.032 114.574 111.016 114.022L111.009 113.754C110.993 113.202 110.529 112.742 109.978 112.732L70.0094 111.997H70.0102Z" fill="white" fill-opacity="0.6"/>
</g>
<g opacity="0.6">
<path d="M70.7278 120.062C70.1764 120.049 69.8439 120.475 69.9883 121.007L70.3765 122.437C70.5209 122.97 71.0904 123.405 71.6425 123.405H105.7C106.251 123.405 106.692 122.954 106.68 122.402L106.668 121.895C106.656 121.343 106.194 120.881 105.643 120.868L70.7278 120.061V120.062Z" fill="white" fill-opacity="0.6"/>
</g>
<g opacity="0.6">
<path d="M152.799 97.9168C153.35 97.9168 153.781 97.466 153.756 96.9143L153.717 96.0744C153.692 95.5235 153.22 95.0666 152.669 95.0606L69.816 94.1176C69.2646 94.1115 69.0314 94.5014 69.2977 94.9846L70.4298 97.0385C70.6961 97.5217 71.3656 97.9168 71.917 97.9168H152.798H152.799Z" fill="white" fill-opacity="0.6"/>
</g>
<g opacity="0.6">
<path d="M69.817 102.022C69.2656 102.016 69.0324 102.406 69.2987 102.889L70.4308 104.943C70.6971 105.426 71.3666 105.822 71.918 105.822H152.799C153.35 105.822 153.781 105.371 153.756 104.819L153.717 103.979C153.692 103.428 153.22 102.971 152.669 102.965L69.8162 102.022H69.817Z" fill="white" fill-opacity="0.6"/>
</g>
<g opacity="0.6">
<path d="M69.7778 132.416C70.0366 133.169 70.9272 133.691 71.9412 133.685L154.6 133.144C155.535 133.138 156.283 132.546 156.262 131.829C156.243 131.131 155.502 130.572 154.593 130.569L71.9322 130.279C70.4729 130.274 69.4054 131.333 69.777 132.416H69.7778Z" fill="white" fill-opacity="0.6"/>
</g>
<g opacity="0.6">
<path d="M69.7778 147.115C70.0366 147.868 70.9272 148.39 71.9412 148.384L154.6 147.843C155.535 147.837 156.283 147.245 156.262 146.527C156.243 145.83 155.502 145.271 154.593 145.268L71.9322 144.978C70.4729 144.973 69.4054 146.033 69.777 147.116L69.7778 147.115Z" fill="white" fill-opacity="0.6"/>
</g>
<g opacity="0.6">
<path d="M69.7778 161.814C70.0366 162.567 70.9272 163.089 71.9412 163.083L154.6 162.542C155.535 162.536 156.283 161.943 156.262 161.226C156.243 160.528 155.502 159.97 154.593 159.967L71.9322 159.677C70.4729 159.672 69.4054 160.732 69.777 161.815L69.7778 161.814Z" fill="white" fill-opacity="0.6"/>
</g>
<g opacity="0.6">
<path d="M69.7778 176.513C70.0366 177.265 70.9272 177.788 71.9412 177.782L154.6 177.241C155.535 177.235 156.283 176.642 156.262 175.925C156.243 175.227 155.502 174.669 154.593 174.666L71.9322 174.376C70.4729 174.371 69.4054 175.431 69.777 176.514L69.7778 176.513Z" fill="white" fill-opacity="0.6"/>
</g>
<path opacity="0.49" d="M155.49 110.769H115.559C115.133 110.769 114.787 111.115 114.787 111.542V125.411C114.787 125.838 115.133 126.184 115.559 126.184H155.49C155.917 126.184 156.263 125.838 156.263 125.411V111.542C156.263 111.115 155.917 110.769 155.49 110.769Z" fill="white" fill-opacity="0.6"/>
<path opacity="0.49" d="M68.3618 49.772V58.6492C68.3618 59.6013 69.1223 60.3795 70.0739 60.4006L151.976 62.237C152.959 62.2588 153.767 61.4686 153.767 60.4856V54.5068C153.767 53.5788 153.043 52.8111 152.117 52.7577L70.2146 48.0237C69.2096 47.9657 68.3626 48.7657 68.3626 49.7728L68.3618 49.772Z" fill="white" fill-opacity="0.6"/>
<path d="M116.385 17.3745C112.913 14.9578 109.894 15.006 107.769 15.6329C105.83 16.2049 104.573 18.0782 104.758 20.0922L105.674 30.1014L116.581 31.07C116.581 31.07 123.194 22.1145 116.385 17.3745ZM111.589 25.4494C110.086 25.4494 108.869 24.2309 108.869 22.7287C108.869 21.2264 110.087 20.0079 111.589 20.0079C113.09 20.0079 114.308 21.2264 114.308 22.7287C114.308 24.2309 113.09 25.4494 111.589 25.4494Z" fill="url(#paint1_radial_44_816)" fill-opacity="0.6"/>
<path d="M106.764 25.8904C106.629 25.8904 106.515 25.7881 106.502 25.6511L106.356 24.057C106.343 23.9125 106.45 23.7838 106.594 23.771C106.742 23.7575 106.867 23.8644 106.88 24.0096L107.026 25.6037C107.039 25.7482 106.933 25.8761 106.788 25.8897C106.78 25.8904 106.772 25.8904 106.764 25.8904ZM106.478 22.767C106.344 22.767 106.229 22.6647 106.216 22.5277L106.106 21.3175C105.93 19.399 107.136 17.6123 108.975 17.0696C110.276 16.6851 111.618 16.6301 112.961 16.9056C113.103 16.9349 113.195 17.0742 113.166 17.2164C113.136 17.3587 112.999 17.4497 112.855 17.4211C111.596 17.1637 110.342 17.2149 109.123 17.5739C107.525 18.0458 106.477 19.6 106.629 21.2685L106.74 22.4788C106.754 22.6233 106.647 22.752 106.502 22.7648C106.494 22.7655 106.486 22.7655 106.478 22.7655V22.767Z" fill="white"/>
<path d="M90.7891 36.5695V31.5374C90.7891 29.8004 92.2281 28.4087 93.9635 28.4682L128.641 29.6566C130.18 29.7093 131.427 30.9248 131.518 32.4624L131.808 37.298L90.7891 36.5695Z" fill="url(#paint2_radial_44_816)" fill-opacity="0.6"/>
<path d="M103.72 30.3641H102.229C102.083 30.3641 101.965 30.2466 101.965 30.1006C101.965 29.9546 102.083 29.8372 102.229 29.8372H103.72C103.865 29.8372 103.983 29.9546 103.983 30.1006C103.983 30.2466 103.865 30.3641 103.72 30.3641Z" fill="white"/>
<path d="M92.6661 34.9889C92.5209 34.9889 92.4028 34.8715 92.4028 34.7255V32.6897C92.4028 31.1167 93.6816 29.8372 95.2538 29.8372H100.737C100.882 29.8372 101 29.9546 101 30.1006C101 30.2466 100.882 30.3641 100.737 30.3641H95.2538C93.972 30.3641 92.9294 31.4072 92.9294 32.6897V34.7255C92.9294 34.8708 92.8113 34.9889 92.6661 34.9889Z" fill="white"/>
<defs>
<filter id="filter0_d_44_816" x="24" y="31.9595" width="58.4072" height="133.129" filterUnits="userSpaceOnUse" color-interpolation-filters="sRGB">
<feFlood flood-opacity="0" result="BackgroundImageFix"/>
<feColorMatrix in="SourceAlpha" type="matrix" values="0 0 0 0 0 0 0 0 0 0 0 0 0 0 0 0 0 0 127 0" result="hardAlpha"/>
<feOffset dx="7" dy="4"/>
<feGaussianBlur stdDeviation="2"/>
<feComposite in2="hardAlpha" operator="out"/>
<feColorMatrix type="matrix" values="0 0 0 0 0 0 0 0 0 0 0 0 0 0 0 0 0 0 0.15 0"/>
<feBlend mode="normal" in2="BackgroundImageFix" result="effect1_dropShadow_44_816"/>
<feBlend mode="normal" in="SourceGraphic" in2="effect1_dropShadow_44_816" result="shape"/>
</filter>
<linearGradient id="paint0_linear_44_816" x1="295.689" y1="-106.441" x2="76.1549" y2="160.98" gradientUnits="userSpaceOnUse">
<stop stop-color="#1B1C1E" stop-opacity="0.8"/>
<stop offset="1" stop-color="white" stop-opacity="0.6"/>
</linearGradient>
<radialGradient id="paint1_radial_44_816" cx="0" cy="0" r="1" gradientUnits="userSpaceOnUse" gradientTransform="translate(112.101 23.1691) rotate(90) scale(7.90095 7.36159)">
<stop stop-color="#272A30" stop-opacity="0.8"/>
<stop offset="1" stop-color="#272A30" stop-opacity="0.6"/>
</radialGradient>
<radialGradient id="paint2_radial_44_816" cx="0" cy="0" r="1" gradientUnits="userSpaceOnUse" gradientTransform="translate(111.299 32.8822) rotate(90) scale(4.41582 20.5095)">
<stop stop-color="#272A30" stop-opacity="0.8"/>
<stop offset="1" stop-color="#272A30" stop-opacity="0.6"/>
</radialGradient>
</defs>
</svg>
