<svg width="200" height="203" viewBox="0 0 200 203" fill="none" xmlns="http://www.w3.org/2000/svg">
<g filter="url(#filter0_d_44_359)">
<g filter="url(#filter1_d_44_359)">
<path d="M98.7432 51.5108C99.645 48.8592 100.232 46.0764 100.473 43.2079L94.7386 40.435C94.7457 39.5074 94.7114 38.5727 94.6285 37.6322C94.6056 37.3068 94.5613 36.9886 94.5242 36.6661L99.918 33.2624C99.3577 30.4353 98.4659 27.7338 97.2797 25.2092L90.9083 25.6716C90.2866 24.5699 89.592 23.511 88.8374 22.5077L91.803 16.8764C89.9293 14.7486 87.8026 12.8505 85.4773 11.2236L80.195 14.7999C79.1131 14.1634 77.9883 13.5912 76.8221 13.0903L76.572 6.73393C73.9179 5.83343 71.1281 5.24546 68.2597 5L65.4814 10.7313C64.5524 10.7227 63.622 10.7598 62.6758 10.8397C62.3486 10.8683 62.027 10.9096 61.7068 10.9482L58.3039 5.55229C55.4684 6.11742 52.7643 7.00794 50.2332 8.19101L50.6977 14.553C49.5958 15.1753 48.5339 15.866 47.532 16.6224L41.8881 13.6597C39.7543 15.5335 37.8535 17.6556 36.2299 19.9803L39.8143 25.2521C39.1726 26.3338 38.5952 27.4555 38.0979 28.6172L31.7293 28.8669C30.8275 31.5185 30.243 34.2985 30 37.1698L35.7368 39.9427C35.7311 40.8717 35.7611 41.8051 35.8426 42.7455C35.8712 43.0709 35.9126 43.3877 35.9555 43.7117L30.556 47.1125C31.1234 49.9396 32.0123 52.6411 33.1971 55.1656L39.5656 54.7047C40.1902 55.8064 40.8819 56.861 41.6366 57.8671L38.6695 63.4971C40.5432 65.632 42.6742 67.5286 44.998 69.1513L50.2775 65.5749C51.3623 66.2186 52.4885 66.7923 53.6504 67.2889L53.902 73.6466C56.556 74.5443 59.3387 75.1337 62.2099 75.3763L64.9954 69.6479C65.9216 69.6536 66.8591 69.6222 67.801 69.5409C68.124 69.5152 68.4455 69.4695 68.7628 69.4295L72.1686 74.8254C75.007 74.2589 77.7082 73.3712 80.2407 72.1896L79.7805 65.8261C80.8782 65.1996 81.9372 64.5103 82.9462 63.7568L88.5873 66.718C90.7182 64.8443 92.6176 62.7236 94.2441 60.3988L90.6668 55.1257C91.3028 54.0425 91.8759 52.9179 92.3804 51.7563L98.746 51.508L98.7432 51.5108ZM65.237 60.9525C53.7691 60.9525 44.4421 51.6378 44.4421 40.1881C44.4421 28.7385 53.7691 19.4252 65.237 19.4252C76.7049 19.4252 86.0304 28.7399 86.0304 40.1896C86.0304 51.6392 76.702 60.954 65.237 60.954V60.9525Z" fill="#1A1C1E"/>
</g>
<path d="M45.9272 40.1881C45.9272 50.8186 54.5868 59.4683 65.2372 59.4683C75.8876 59.4683 84.5443 50.8186 84.5443 40.1881C84.5443 29.5576 75.8848 20.9065 65.2372 20.9065C54.5896 20.9065 45.9272 29.5562 45.9272 40.1881ZM79.7665 38.9208C80.4639 46.9383 74.527 54.0025 66.502 54.6989C58.4771 55.3996 51.3997 49.4643 50.6994 41.454C50.0048 33.4393 55.9417 26.3737 63.9666 25.6787C71.9959 24.978 79.0719 30.9119 79.7665 38.9223V38.9208Z" fill="#1A1C1E"/>
<path d="M44.4424 40.1882C44.4424 51.6378 53.7694 60.9525 65.2373 60.9525C76.7052 60.9525 86.0307 51.6378 86.0307 40.1882C86.0307 28.7385 76.7023 19.4238 65.2373 19.4238C53.7722 19.4238 44.4424 28.7399 44.4424 40.1882ZM84.5444 40.1882C84.5444 50.8187 75.8848 59.4684 65.2373 59.4684C54.5897 59.4684 45.9273 50.8187 45.9273 40.1882C45.9273 29.5576 54.5869 20.9065 65.2373 20.9065C75.8877 20.9065 84.5444 29.5562 84.5444 40.1882Z" fill="white"/>
</g>
<g filter="url(#filter2_d_44_359)">
<path d="M102.597 96.2038C102.297 110.541 113.734 122.451 128.09 122.749C142.448 123.05 154.373 111.628 154.674 97.2953C154.978 82.9581 143.544 71.0486 129.179 70.75C114.82 70.449 102.896 81.8689 102.597 96.2038ZM142.354 88.2402C146.821 95.7816 144.32 105.515 136.767 109.977C129.116 114.494 119.231 111.873 114.836 104.116C110.716 96.8304 113.185 87.2364 120.313 82.8324C127.901 78.1409 137.829 80.618 142.354 88.2402Z" fill="#1A1C1E"/>
<g filter="url(#filter3_d_44_359)">
<path d="M170.486 100.873C170.78 97.8479 170.753 94.8003 170.394 91.7505L163.309 90.0594C162.936 88.2044 162.412 86.3561 161.748 84.5415L166.941 79.4256C166.318 78.0489 165.612 76.6924 164.825 75.3674C164.047 74.0469 163.196 72.7847 162.286 71.572L155.295 73.6584C154.025 72.1941 152.657 70.8511 151.198 69.6384L153.132 62.6225C150.631 60.8371 147.966 59.3436 145.17 58.1444L140.15 63.4445C138.342 62.8201 136.486 62.344 134.606 62.0161L132.75 54.9553C129.728 54.6634 126.671 54.6948 123.633 55.0676L121.923 62.1396C120.063 62.499 118.223 63.0222 116.411 63.696L111.283 58.5149C109.915 59.1325 108.546 59.8265 107.221 60.617C105.896 61.3963 104.63 62.2474 103.42 63.1458L105.5 70.1369C104.041 71.4081 102.693 72.7713 101.479 74.2265L94.4528 72.2996C92.6625 74.788 91.1691 77.4515 89.9703 80.2363L95.2737 85.2534C94.6484 87.0613 94.1851 88.9141 93.8545 90.7916L86.7923 92.6421C86.4932 95.6604 86.5247 98.7147 86.8868 101.758L93.9827 103.442C94.3448 105.306 94.8644 107.145 95.5278 108.967L90.3392 114.08C90.9599 115.457 91.6571 116.809 92.4466 118.125C93.2338 119.455 94.0817 120.724 94.9858 121.927L101.985 119.848C103.251 121.305 104.63 122.648 106.081 123.859L104.155 130.884C106.652 132.664 109.313 134.167 112.097 135.348L117.128 130.057C118.941 130.688 120.781 131.158 122.677 131.479L124.525 138.537C127.544 138.822 130.607 138.805 133.655 138.441L135.341 131.36C137.206 131 139.05 130.477 140.865 129.806L146.011 134.989C147.379 134.376 148.732 133.673 150.057 132.887C151.386 132.103 152.641 131.254 153.856 130.347L151.776 123.367C153.237 122.098 154.582 120.728 155.795 119.277L162.825 121.202C164.613 118.709 166.116 116.046 167.299 113.263L161.995 108.239C162.616 106.443 163.1 104.594 163.424 102.71L170.486 100.866V100.873ZM128.063 123.877C113.087 123.565 101.155 111.141 101.47 96.1815C101.78 81.2267 114.22 69.3105 129.204 69.6249C144.183 69.9371 156.11 82.3608 155.801 97.3201C155.487 112.277 143.047 124.191 128.063 123.877Z" fill="#1A1C1E"/>
</g>
<path d="M101.47 96.1791C101.156 111.138 113.087 123.562 128.064 123.874C143.047 124.189 155.487 112.275 155.802 97.3177C156.11 82.3584 144.183 69.9346 129.204 69.6225C114.221 69.3081 101.781 81.222 101.47 96.1791ZM154.673 97.2952C154.374 111.628 142.447 123.052 128.089 122.749C113.733 122.45 102.296 110.541 102.595 96.2038C102.894 81.8666 114.819 70.4489 129.177 70.7499C143.54 71.0508 154.976 82.9603 154.673 97.2952Z" fill="white"/>
</g>
<g filter="url(#filter4_d_44_359)">
<path d="M75.49 167.458C75.2963 176.742 82.7026 184.455 91.9995 184.648C101.298 184.843 109.02 177.446 109.215 168.164C109.412 158.88 102.007 151.167 92.7044 150.974C83.4061 150.779 75.6838 158.174 75.49 167.458ZM101.237 162.3C104.129 167.184 102.51 173.487 97.6187 176.377C92.6637 179.302 86.2623 177.605 83.4163 172.581C80.748 167.863 82.3473 161.65 86.9629 158.798C91.8771 155.76 98.3061 157.364 101.237 162.3Z" fill="#1A1C1E"/>
<g filter="url(#filter5_d_44_359)">
<path d="M119.455 170.481C119.646 168.522 119.628 166.549 119.395 164.574L114.807 163.478C114.565 162.277 114.226 161.08 113.796 159.905L117.159 156.592C116.756 155.7 116.299 154.822 115.789 153.964C115.285 153.109 114.734 152.291 114.144 151.506L109.618 152.857C108.795 151.909 107.909 151.039 106.964 150.254L108.216 145.71C106.597 144.554 104.871 143.587 103.06 142.81L99.8095 146.243C98.6385 145.838 97.4369 145.53 96.2192 145.318L95.0176 140.745C93.0601 140.556 91.0807 140.577 89.113 140.818L88.006 145.398C86.8015 145.63 85.6101 145.969 84.4362 146.406L81.1153 143.05C80.2298 143.45 79.3428 143.9 78.4849 144.412C77.627 144.916 76.807 145.468 76.0234 146.049L77.3707 150.577C76.4254 151.4 75.5529 152.283 74.7664 153.225L70.2163 151.977C69.0569 153.589 68.0898 155.314 67.3135 157.117L70.7479 160.366C70.343 161.537 70.043 162.737 69.8289 163.953L65.2555 165.151C65.0618 167.106 65.0821 169.084 65.3166 171.054L69.9119 172.145C70.1464 173.352 70.4829 174.543 70.9125 175.723L67.5524 179.034C67.9544 179.926 68.4059 180.801 68.9171 181.654C69.4269 182.515 69.976 183.336 70.5615 184.116L75.0941 182.769C75.9142 183.713 76.807 184.583 77.7464 185.367L76.4997 189.916C78.1164 191.069 79.8394 192.042 81.6426 192.807L84.9008 189.381C86.0747 189.789 87.2661 190.093 88.494 190.301L89.6912 194.872C91.6458 195.057 93.6296 195.045 95.6031 194.81L96.6955 190.224C97.903 189.992 99.0973 189.653 100.273 189.218L103.605 192.574C104.491 192.177 105.368 191.722 106.225 191.213C107.086 190.706 107.899 190.156 108.685 189.568L107.338 185.048C108.285 184.226 109.156 183.339 109.941 182.4L114.494 183.646C115.652 182.032 116.625 180.307 117.391 178.505L113.957 175.252C114.359 174.088 114.672 172.891 114.881 171.671L119.455 170.477V170.481ZM91.9823 185.378C82.2834 185.176 74.5567 177.131 74.7606 167.443C74.9616 157.758 83.0175 150.042 92.7207 150.245C102.421 150.447 110.145 158.493 109.945 168.18C109.741 177.866 101.686 185.582 91.9823 185.378Z" fill="#1A1C1E"/>
</g>
<path d="M74.7618 167.441C74.5578 177.129 82.2846 185.175 91.9834 185.377C101.687 185.58 109.743 177.865 109.946 168.179C110.146 158.491 102.422 150.446 92.7219 150.244C83.0187 150.04 74.9628 157.755 74.7618 167.441ZM109.215 168.164C109.022 177.446 101.298 184.844 91.9995 184.648C82.7026 184.455 75.2963 176.742 75.49 167.457C75.6837 158.173 83.4061 150.779 92.7044 150.974C102.006 151.169 109.412 158.881 109.215 168.164Z" fill="white"/>
</g>
<defs>
<filter id="filter0_d_44_359" x="25" y="2" width="80.4727" height="80.3763" filterUnits="userSpaceOnUse" color-interpolation-filters="sRGB">
<feFlood flood-opacity="0" result="BackgroundImageFix"/>
<feColorMatrix in="SourceAlpha" type="matrix" values="0 0 0 0 0 0 0 0 0 0 0 0 0 0 0 0 0 0 127 0" result="hardAlpha"/>
<feOffset dy="2"/>
<feGaussianBlur stdDeviation="2.5"/>
<feComposite in2="hardAlpha" operator="out"/>
<feColorMatrix type="matrix" values="0 0 0 0 0 0 0 0 0 0 0 0 0 0 0 0 0 0 0.15 0"/>
<feBlend mode="normal" in2="BackgroundImageFix" result="effect1_dropShadow_44_359"/>
<feBlend mode="normal" in="SourceGraphic" in2="effect1_dropShadow_44_359" result="shape"/>
</filter>
<filter id="filter1_d_44_359" x="26" y="5" width="78.4727" height="78.3763" filterUnits="userSpaceOnUse" color-interpolation-filters="sRGB">
<feFlood flood-opacity="0" result="BackgroundImageFix"/>
<feColorMatrix in="SourceAlpha" type="matrix" values="0 0 0 0 0 0 0 0 0 0 0 0 0 0 0 0 0 0 127 0" result="hardAlpha"/>
<feOffset dy="4"/>
<feGaussianBlur stdDeviation="2"/>
<feComposite in2="hardAlpha" operator="out"/>
<feColorMatrix type="matrix" values="0 0 0 0 0 0 0 0 0 0 0 0 0 0 0 0 0 0 0.25 0"/>
<feBlend mode="normal" in2="BackgroundImageFix" result="effect1_dropShadow_44_359"/>
<feBlend mode="normal" in="SourceGraphic" in2="effect1_dropShadow_44_359" result="shape"/>
</filter>
<filter id="filter2_d_44_359" x="81.5894" y="51.7593" width="94.0977" height="93.975" filterUnits="userSpaceOnUse" color-interpolation-filters="sRGB">
<feFlood flood-opacity="0" result="BackgroundImageFix"/>
<feColorMatrix in="SourceAlpha" type="matrix" values="0 0 0 0 0 0 0 0 0 0 0 0 0 0 0 0 0 0 127 0" result="hardAlpha"/>
<feOffset dy="2"/>
<feGaussianBlur stdDeviation="2.5"/>
<feComposite in2="hardAlpha" operator="out"/>
<feColorMatrix type="matrix" values="0 0 0 0 0 0 0 0 0 0 0 0 0 0 0 0 0 0 0.15 0"/>
<feBlend mode="normal" in2="BackgroundImageFix" result="effect1_dropShadow_44_359"/>
<feBlend mode="normal" in="SourceGraphic" in2="effect1_dropShadow_44_359" result="shape"/>
</filter>
<filter id="filter3_d_44_359" x="82.5894" y="54.7593" width="92.0977" height="91.975" filterUnits="userSpaceOnUse" color-interpolation-filters="sRGB">
<feFlood flood-opacity="0" result="BackgroundImageFix"/>
<feColorMatrix in="SourceAlpha" type="matrix" values="0 0 0 0 0 0 0 0 0 0 0 0 0 0 0 0 0 0 127 0" result="hardAlpha"/>
<feOffset dy="4"/>
<feGaussianBlur stdDeviation="2"/>
<feComposite in2="hardAlpha" operator="out"/>
<feColorMatrix type="matrix" values="0 0 0 0 0 0 0 0 0 0 0 0 0 0 0 0 0 0 0.25 0"/>
<feBlend mode="normal" in2="BackgroundImageFix" result="effect1_dropShadow_44_359"/>
<feBlend mode="normal" in="SourceGraphic" in2="effect1_dropShadow_44_359" result="shape"/>
</filter>
<filter id="filter4_d_44_359" x="60.124" y="137.618" width="64.4614" height="64.3817" filterUnits="userSpaceOnUse" color-interpolation-filters="sRGB">
<feFlood flood-opacity="0" result="BackgroundImageFix"/>
<feColorMatrix in="SourceAlpha" type="matrix" values="0 0 0 0 0 0 0 0 0 0 0 0 0 0 0 0 0 0 127 0" result="hardAlpha"/>
<feOffset dy="2"/>
<feGaussianBlur stdDeviation="2.5"/>
<feComposite in2="hardAlpha" operator="out"/>
<feColorMatrix type="matrix" values="0 0 0 0 0 0 0 0 0 0 0 0 0 0 0 0 0 0 0.15 0"/>
<feBlend mode="normal" in2="BackgroundImageFix" result="effect1_dropShadow_44_359"/>
<feBlend mode="normal" in="SourceGraphic" in2="effect1_dropShadow_44_359" result="shape"/>
</filter>
<filter id="filter5_d_44_359" x="61.124" y="140.618" width="62.4614" height="62.3817" filterUnits="userSpaceOnUse" color-interpolation-filters="sRGB">
<feFlood flood-opacity="0" result="BackgroundImageFix"/>
<feColorMatrix in="SourceAlpha" type="matrix" values="0 0 0 0 0 0 0 0 0 0 0 0 0 0 0 0 0 0 127 0" result="hardAlpha"/>
<feOffset dy="4"/>
<feGaussianBlur stdDeviation="2"/>
<feComposite in2="hardAlpha" operator="out"/>
<feColorMatrix type="matrix" values="0 0 0 0 0 0 0 0 0 0 0 0 0 0 0 0 0 0 0.25 0"/>
<feBlend mode="normal" in2="BackgroundImageFix" result="effect1_dropShadow_44_359"/>
<feBlend mode="normal" in="SourceGraphic" in2="effect1_dropShadow_44_359" result="shape"/>
</filter>
</defs>
</svg>
