<svg width="27" height="20" viewBox="0 0 27 20" fill="none" xmlns="http://www.w3.org/2000/svg">
<path d="M13.6719 19.7C10.638 19.6048 7.75283 19.5307 4.86766 19.4195C4.246 19.3931 3.61371 19.2978 3.00799 19.1549C1.87093 18.8903 1.08456 18.2075 0.680741 17.0908C0.356629 16.1911 0.239735 15.2649 0.154721 14.3228C-0.0312461 12.1105 -0.0312461 9.89823 0.0590811 7.68594C0.112215 6.43689 0.144095 5.17728 0.478836 3.96528C0.680741 3.2402 0.925155 2.531 1.51494 2.00703C2.1366 1.45131 2.86453 1.11788 3.69341 1.08084C5.96755 0.969693 8.23635 0.832087 10.5105 0.810916C13.571 0.779161 16.6368 0.821502 19.6973 0.87972C21.0203 0.906183 22.3539 0.974986 23.6663 1.14435C24.8671 1.30312 25.7651 1.96999 26.2433 3.13435C26.6099 4.02879 26.7481 4.96557 26.8278 5.91824C27.035 8.30516 27.0403 10.6921 26.9234 13.0791C26.865 14.2911 26.8065 15.5083 26.4612 16.6886C26.068 18.0435 25.2338 18.9379 23.8417 19.2449C23.2997 19.3613 22.7365 19.4037 22.1839 19.4248C19.2934 19.5254 16.4083 19.6154 13.6719 19.7ZM10.7336 13.6824C13.1565 12.4334 15.5528 11.1949 17.997 9.92998C15.5582 8.65977 13.1618 7.41601 10.7336 6.15109C10.7336 8.67564 10.7336 11.1579 10.7336 13.6824Z" fill="white"/>
</svg>
